<?xml version="1.0" standalone="no"?><svg xmlns="http://www.w3.org/2000/svg" viewBox="0 0 1440 320"><path fill="#ff5500" fill-opacity="1" d="M0,64L24,85.3C48,107,96,149,144,138.7C192,128,240,64,288,42.7C336,21,384,43,432,85.3C480,128,528,192,576,234.7C624,277,672,299,720,272C768,245,816,171,864,170.7C912,171,960,245,1008,277.3C1056,309,1104,299,1152,250.7C1200,203,1248,117,1296,74.7C1344,32,1392,32,1416,32L1440,32L1440,320L1416,320C1392,320,1344,320,1296,320C1248,320,1200,320,1152,320C1104,320,1056,320,1008,320C960,320,912,320,864,320C816,320,768,320,720,320C672,320,624,320,576,320C528,320,480,320,432,320C384,320,336,320,288,320C240,320,192,320,144,320C96,320,48,320,24,320L0,320Z"></path></svg>